<?xml version="1.0" encoding="utf-8"?>
<!-- Generator: Adobe Illustrator 23.1.0, SVG Export Plug-In . SVG Version: 6.00 Build 0)  -->
<svg version="1.1" id="Capa_1" xmlns="http://www.w3.org/2000/svg" xmlns:xlink="http://www.w3.org/1999/xlink" x="0px" y="0px"
	 viewBox="0 0 247.1 247.1" enable-background="new 0 0 247.1 247.1" xml:space="preserve">
<path fill="none" stroke="#000000" stroke-width="3" stroke-miterlimit="10" d="M218,158.8c-2.4-2.4-6.4-2.4-8.8,0l-2.5,2.5
	c-1.7-10.5-6.8-20-14-27.2c-9-9-21.6-14.7-35.4-14.7c-13.8,0-26.3,5.6-35.4,14.7c-9,9-14.7,21.6-14.7,35.4
	c0,13.8,5.6,26.3,14.7,35.4c9,9,21.6,14.7,35.4,14.7c13.7,0,26.3-5.6,35.4-14.7l-8.8-8.8c-6.8,6.8-16.2,11-26.5,11
	c-10.4,0-19.7-4.2-26.5-11c-6.8-6.8-11-16.2-11-26.5c0-10.4,4.2-19.7,11-26.5c6.8-6.8,16.2-11,26.5-11c10.4,0,19.7,4.2,26.5,11
	c4.5,4.5,7.8,10,9.6,16.2l-0.4-0.4c-2.4-2.4-6.4-2.4-8.8,0c-2.4,2.4-2.4,6.4,0,8.8l12.5,12.5c1.2,1.2,2.8,1.8,4.4,1.8
	c1.6,0,3.3-0.7,4.4-1.8l12.5-12.5C220.5,165.2,220.5,161.2,218,158.8z"/>
<path fill="none" stroke="#000000" stroke-width="4.025" stroke-miterlimit="10" d="M46.1,216.5h64.6v-11.7H46.1
	c-3.2,0-5.9-2.6-5.9-5.9V46.1c0-3.2,2.6-5.9,5.9-5.9h76.4v29.4c0,9.7,7.9,17.6,17.6,17.6h29.4v23.5h11.7V86.2
	c0-4.7-1.9-9.2-5.2-12.5c0,0,0,0,0,0L133.3,31c-1.1-1.1-2.6-1.5-4.1-1.5c-1.8-0.6-3.7-1-5.7-1H46.1c-9.7,0-17.6,7.9-17.6,17.6v152.7
	C28.5,208.6,36.3,216.5,46.1,216.5z M134.2,48.5l26.9,26.9h-21.1c-3.2,0-5.9-2.6-5.9-5.9V48.5z"/>
</svg>
